<svg height="480pt" viewBox="-8 0 480 480" width="480pt" xmlns="http://www.w3.org/2000/svg"><path d="m432 472-15.199219-232.800781c0-4.800781.800781-9.597657 2.398438-14.398438l7.199219-19.199219c4-9.601562 5.601562-19.203124 5.601562-29.601562 17.601562 0 32-14.398438 32-32v-31.199219c0-8-5.601562-15.199219-13.601562-16.800781-8.796876-1.601562-16.796876 4-18.398438 12.800781v2.398438-55.199219c0-8-5.601562-15.199219-13.601562-16.800781-8.796876-1.597657-16.796876 4-18.398438 12.800781v2.398438c0-8.796876-7.199219-16-16-16s-16 7.203124-16 16c0-8.796876-7.199219-16-16-16s-16 7.203124-16 16c0-8.796876-7.199219-16-16-16-.800781 0-1.601562 0-2.398438 0-8 2.402343-13.601562 9.601562-13.601562 17.601562v120.800781c0 10.398438 1.601562 20 5.601562 29.597657l7.199219 19.203124c1.597657 4.796876 2.398438 9.597657 2.398438 14.398438l-15.199219 232" fill="#88d3d1"/><g fill="#33b1a2"><path d="m422.398438 144h5.601562c2.398438 0 4-1.601562 4-4v-28l-12.800781 26.398438c-.800781 1.601562 0 4 1.601562 5.601562zm0 0"/><path d="m320 104c0 4.800781 3.199219 8 8 8s8-3.199219 8-8v-48.800781c0-8.800781-7.199219-16-16-16v.800781zm0 0"/><path d="m352 104c0 4.800781 3.199219 8 8 8s8-3.199219 8-8v-48.800781c0-8.800781-7.199219-16-16-16v.800781zm0 0"/><path d="m384 104c0 4.800781 3.199219 8 8 8s8-3.199219 8-8v-48.800781c0-8.800781-7.199219-16-16-16v.800781zm0 0"/><path d="m376 208c-4.800781 0-8-3.199219-8-8 0-17.601562-14.398438-32-32-32-4.800781 0-8-3.199219-8-8s3.199219-8 8-8c15.199219 0 29.601562 7.199219 39.199219 20 6.402343-8 15.199219-12 24.800781-12 4.800781 0 8 3.199219 8 8s-3.199219 8-8 8c-8.800781 0-16 7.199219-16 16v8c0 4.800781-3.199219 8-8 8zm0 0"/><path d="m344 313.601562c2.398438-33.601562-7.199219-66.402343-27.199219-93.601562-.800781-1.601562-1.601562-2.398438-3.199219-4l3.199219 8.800781c1.597657 4.800781 2.398438 9.597657 2.398438 14.398438l-15.199219 232.800781h32zm0 0"/></g><path d="m200 480h-48c-22.398438 0-40-17.601562-40-40v-32c0-4.800781 3.199219-8 8-8s8 3.199219 8 8v32c0 13.601562 10.398438 24 24 24h48c13.601562 0 24-10.398438 24-24 0-22.398438 17.601562-40 40-40h72c13.601562 0 24-10.398438 24-24v-16c0-4.800781 3.199219-8 8-8s8 3.199219 8 8v16c0 22.398438-17.601562 40-40 40h-72c-13.601562 0-24 10.398438-24 24 0 22.398438-17.601562 40-40 40zm0 0" fill="#ee1442"/><path d="m168 64c-4.800781 0-8-3.199219-8-8v-16c0-13.601562-10.398438-24-24-24h-32c-13.601562 0-24 10.398438-24 24v16c0 4.800781-3.199219 8-8 8s-8-3.199219-8-8v-16c0-22.398438 17.601562-40 40-40h32c22.398438 0 40 17.601562 40 40v16c0 4.800781-3.199219 8-8 8zm0 0" fill="#297c6e"/><path d="m64 56h112c35.199219 0 64 28.800781 64 64v176c0 35.199219-28.800781 64-64 64h-112c-35.199219 0-64-28.800781-64-64v-176c0-35.199219 28.800781-64 64-64zm0 0" fill="#88d3d1"/><path d="m199.996094 90.152344c-13.390625-7.730469-27.828125-7.796875-32.25-.144532-4.417969 7.652344 2.859375 20.125 16.25 27.859376 13.390625 7.730468 27.828125 7.792968 32.246094.140624 4.421874-7.652343-2.855469-20.121093-16.246094-27.855468zm0 0" fill="#c5dddc"/><path d="m208 328h-144c-17.601562 0-32-14.398438-32-32v-208c0-8.800781 1.601562-18.398438 5.601562-26.398438-23.203124 10.398438-37.601562 33.597657-37.601562 58.398438v176c0 35.199219 28.800781 64 64 64h112c24.800781 0 48-14.398438 58.398438-37.601562-8 4-17.597657 5.601562-26.398438 5.601562zm0 0" fill="#33b1a2"/><path d="m96 360h48v32c0 8.800781-7.199219 16-16 16h-16c-8.800781 0-16-7.199219-16-16zm0 0" fill="#2e9989"/><path d="m40 136h160c4.800781 0 8 3.199219 8 8v152c0 17.601562-14.398438 32-32 32h-112c-17.601562 0-32-14.398438-32-32v-152c0-4.800781 3.199219-8 8-8zm0 0" fill="#ff6283"/><path d="m164 224c-54.398438 0-102.398438-15.199219-132-37.601562v109.601562c0 17.601562 14.398438 32 32 32h112c17.601562 0 32-14.398438 32-32v-75.199219c-14.398438 2.398438-29.601562 3.199219-44 3.199219zm0 0" fill="#ee1442"/><path d="m80 304h-48c-4.800781 0-8-3.199219-8-8s3.199219-8 8-8h48c4.800781 0 8 3.199219 8 8s-3.199219 8-8 8zm0 0" fill="#297c6e"/><path d="m80 272h-48c-4.800781 0-8-3.199219-8-8s3.199219-8 8-8h48c4.800781 0 8 3.199219 8 8s-3.199219 8-8 8zm0 0" fill="#297c6e"/><path d="m80 240h-48c-4.800781 0-8-3.199219-8-8s3.199219-8 8-8h48c4.800781 0 8 3.199219 8 8s-3.199219 8-8 8zm0 0" fill="#297c6e"/><path d="m80 208h-48c-4.800781 0-8-3.199219-8-8s3.199219-8 8-8h48c4.800781 0 8 3.199219 8 8s-3.199219 8-8 8zm0 0" fill="#297c6e"/><path d="m80 176h-48c-4.800781 0-8-3.199219-8-8s3.199219-8 8-8h48c4.800781 0 8 3.199219 8 8s-3.199219 8-8 8zm0 0" fill="#297c6e"/><path d="m352 328h32c4.800781 0 8 3.199219 8 8v16c0 4.800781-3.199219 8-8 8h-32c-4.800781 0-8-3.199219-8-8v-16c0-4.800781 3.199219-8 8-8zm0 0" fill="#c5dddc"/></svg>