<svg height="512pt" viewBox="0 0 512 512.00021" width="512pt" xmlns="http://www.w3.org/2000/svg"><path d="m512 26.484375v326.621094h-512v-326.621094c0-14.628906 11.855469-26.484375 26.484375-26.484375h459.03125c14.628906 0 26.484375 11.855469 26.484375 26.484375zm0 0" fill="#2980ba"/><path d="m509.703125 15.800781c-57.90625 14.566407-328.738281 95.867188-502.90625 381.441407-4.386719-4.832032-6.8125-11.128907-6.796875-17.65625v-353.101563c0-14.628906 11.855469-26.484375 26.484375-26.484375h459.03125c10.5-.0429688 20.011719 6.171875 24.1875 15.800781zm0 0" fill="#3b97d3"/><path d="m211.863281 379.585938h88.273438v105.929687h-88.273438zm0 0" fill="#95a5a5"/><path d="m176.550781 459.035156h158.898438c19.5 0 35.308593 15.808594 35.308593 35.308594v13.242188c0 2.4375-1.976562 4.414062-4.414062 4.414062h-220.6875c-2.4375 0-4.414062-1.976562-4.414062-4.414062v-13.242188c0-19.5 15.808593-35.308594 35.308593-35.308594zm0 0" fill="#bdc3c7"/><path d="m512 335.449219v44.136719c0 14.625-11.855469 26.484374-26.484375 26.484374h-459.03125c-14.628906 0-26.484375-11.859374-26.484375-26.484374v-44.136719zm0 0" fill="#bdc3c7"/><path d="m273.65625 379.585938h-35.3125c-4.875 0-8.828125-3.953126-8.828125-8.828126s3.953125-8.828124 8.828125-8.828124h35.3125c4.875 0 8.828125 3.953124 8.828125 8.828124s-3.953125 8.828126-8.828125 8.828126zm0 0" fill="#7f8c8d"/><path d="m256 208.242188c-20.875 45.375-72.738281 67.546874-119.964844 51.289062l-56.585937 22.953125 11.5625-55.171875c-22.804688-29.523438-26.683594-69.5-9.976563-102.855469 16.707032-33.351562 51.046875-54.1875 88.347656-53.601562 37.296876.585937 70.964844 22.488281 86.617188 56.351562zm0 0" fill="#955ba5"/><path d="m247.171875 167.722656c.019531 31.394532 15.203125 60.839844 40.761719 79.0625 25.5625 18.21875 58.351562 22.96875 88.035156 12.746094l56.582031 22.953125-11.5625-55.171875c26.019531-33.527344 27.253907-80.070312 3.042969-114.925781-24.207031-34.859375-68.25-49.957031-108.753906-37.285157-40.5 12.675782-68.082032 50.183594-68.105469 92.621094zm0 0" fill="#f0c419"/><g fill="#fff"><path d="m396.359375 207.917969-44.136719-88.277344c-1.660156-2.785156-4.664062-4.488281-7.902344-4.488281-3.242187 0-6.242187 1.703125-7.902343 4.488281l-44.136719 88.277344c-2.179688 4.363281-.410156 9.664062 3.953125 11.84375 4.367187 2.179687 9.667969.410156 11.847656-3.953125l15.167969-30.429688h42.054688l15.207031 30.429688c2.179687 4.363281 7.484375 6.132812 11.847656 3.953125 4.363281-2.179688 6.132813-7.480469 3.957031-11.84375zm-64.28125-40.195313 12.199219-24.398437 12.199218 24.398437zm0 0"/><path d="m167.722656 203.035156c-4.875 0-8.824218-3.953125-8.824218-8.828125v-17.65625c0-4.875 3.949218-8.828125 8.824218-8.828125 14.628906 0 26.484375-11.855468 26.484375-26.480468s-11.855469-26.484376-26.484375-26.484376c-14.625 0-26.480468 11.859376-26.480468 26.484376 0 4.875-3.953126 8.828124-8.828126 8.828124s-8.828124-3.953124-8.828124-8.828124c.003906-23.226563 18.007812-42.476563 41.183593-44.03125 23.175781-1.554688 43.589844 15.117187 46.695313 38.136718 3.109375 23.015625-12.15625 44.503906-34.914063 49.148438v9.710937c0 4.875-3.949219 8.828125-8.828125 8.828125zm0 0"/><path d="m167.722656 238.34375c-2.335937-.03125-4.574218-.945312-6.265625-2.558594-.78125-.859375-1.40625-1.84375-1.855469-2.914062-.941406-2.136719-.941406-4.570313 0-6.707032.449219-1.070312 1.074219-2.054687 1.855469-2.914062 2.136719-2.046875 5.128907-2.933594 8.03125-2.382812.554688.09375 1.089844.273437 1.589844.527343.5625.195313 1.097656.460938 1.589844.796875.460937.324219.90625.679688 1.324219 1.058594.796874.84375 1.425781 1.832031 1.851562 2.914062.945312 2.136719.945312 4.570313 0 6.707032-1.269531 3.363281-4.527344 5.558594-8.121094 5.472656zm0 0"/></g></svg>