<svg height="463pt" viewBox="-32 0 463 463.98211" width="463pt" xmlns="http://www.w3.org/2000/svg"><path d="m264.492188 101.980469-64-8h-40l-56 26h-56v96h56l32 14h184v-128zm0 0" fill="#eeb58e"/><path d="m160.492188 173.980469h-56v-16h51.71875l13.601562-20.4375 13.3125 8.878906-16 24c-1.480469 2.21875-3.96875 3.550781-6.632812 3.558594zm0 0" fill="#cd9c7a"/><path d="m94.484375 358.734375 8.664063-48.457031c7.484374-41.855469 27.613281-80.410156 57.679687-110.480469l.34375-.34375c11.1875-11.183594 17.472656-26.355469 17.472656-42.175781v-58.984375c-.003906-13.429688-2.417969-26.75-7.128906-39.328125l-10.984375-29.277344c-1.085938-2.890625-.410156-6.144531 1.730469-8.367188 2.140625-2.21875 5.367187-3.011718 8.292969-2.035156l24.136718 8.050782c4.984375 1.652343 10.460938.753906 14.65625-2.402344l20.496094-15.351563c2.84375-2.132812 6.753906-2.132812 9.597656 0l20.800782 15.632813c4.007812 3.003906 9.1875 3.960937 14 2.582031l30.871093-8.796875c3.050781-.871094 6.324219.140625 8.351563 2.582031 2.023437 2.4375 2.417968 5.84375 1.003906 8.679688l-12 24.074219c-7.777344 15.550781-11.824219 32.699218-11.824219 50.085937v47.113281c-.003906 17.734375 7.890625 34.550782 21.535157 45.878906 37.75 31.359376 63.195312 75.058594 71.839843 123.367188l6.785157 37.929688c4.902343 23.527343-.921876 48.019531-15.894532 66.820312-14.96875 18.800781-37.535156 29.960938-61.5625 30.449219h-141.410156c-24.023438-.488281-46.582031-11.644531-61.550781-30.441407-14.972657-18.796874-20.800781-43.28125-15.902344-66.804687zm0 0" fill="#8dc79d"/><path d="m8.492188 119.980469h48v96h-48zm0 0" fill="#5d9aa4"/><path d="m277.292969 297.582031-13.601563-10.214843c-4.472656-3.316407-9.695312-5.480469-15.199218-6.304688v-9.082031c0-4.417969-3.582032-8-8-8-4.417969 0-8 3.582031-8 8v10.289062c-14.339844 4.398438-24.09375 17.683594-24 32.679688-.035157 11.027343 6.199218 21.117187 16.078124 26.015625l24.722657 12.34375c4.429687 2.214844 7.21875 6.753906 7.199219 11.707031.007812 4.902344-1.941407 9.609375-5.417969 13.070313-6.523438 6.457031-16.785157 7.1875-24.160157 1.71875l-13.621093-10.222657c-3.535157-2.652343-8.550781-1.933593-11.203125 1.601563-2.648438 3.53125-1.933594 8.546875 1.601562 11.199218l13.601563 10.214844c4.464843 3.347656 9.683593 5.542969 15.199219 6.402344v8.980469c0 4.421875 3.582031 8 8 8 4.417968 0 8-3.578125 8-8v-10.316407c14.347656-4.367187 24.113281-17.652343 24-32.648437.03125-11.027344-6.203126-21.117187-16.082032-26.015625l-24.71875-12.347656c-4.429687-2.214844-7.222656-6.75-7.199218-11.703125-.011719-4.902344 1.9375-9.609375 5.414062-13.070313 6.519531-6.472656 16.792969-7.207031 24.160156-1.722656l13.625 10.226562c3.535156 2.648438 8.546875 1.933594 11.199219-1.601562s1.933594-8.546875-1.597656-11.199219zm0 0" fill="#5e8569"/><g fill="#f6bb92"><path d="m180.492188 77.980469c11.042968 0 20 8.957031 20 20v32c0 11.046875-8.957032 20-20 20-11.046876 0-20-8.953125-20-20v-32c0-11.042969 8.953124-20 20-20zm0 0"/><path d="m288.492188 85.980469h32c8.835937 0 16 7.164062 16 16 0 8.839843-7.164063 16-16 16h-32c-8.835938 0-16-7.160157-16-16 0-8.835938 7.164062-16 16-16zm0 0"/><path d="m288.492188 117.980469h32c8.835937 0 16 7.164062 16 16 0 8.839843-7.164063 16-16 16h-32c-8.835938 0-16-7.160157-16-16 0-8.835938 7.164062-16 16-16zm0 0"/><path d="m288.492188 149.980469h32c8.835937 0 16 7.164062 16 16 0 8.839843-7.164063 16-16 16h-32c-8.835938 0-16-7.160157-16-16 0-8.835938 7.164062-16 16-16zm0 0"/><path d="m288.492188 181.980469h32c8.835937 0 16 7.164062 16 16 0 8.839843-7.164063 16-16 16h-32c-8.835938 0-16-7.160157-16-16 0-8.835938 7.164062-16 16-16zm0 0"/></g><path d="m8.492188 223.980469h94.328124l21.328126 9.328125c-14.3125 23.136718-24.109376 48.777344-28.875 75.5625l-8.613282 48.230468c-5.464844 26.371094 1.300782 53.796876 18.398438 74.601563 16.269531 20.3125 40.855468 32.179687 66.878906 32.277344h141.410156c26.03125-.09375 50.621094-11.960938 66.894532-32.277344 17.050781-20.753906 23.8125-48.09375 18.402343-74.402344l-6.769531-37.925781c-7.121094-39.824219-25.328125-76.828125-52.535156-106.769531 7.238281-9.089844 6.765625-22.105469-1.113282-30.648438 8.320313-9.042969 8.320313-22.953125 0-32 8.320313-9.042969 8.320313-22.953125 0-32 6.394532-7.007812 8.035157-17.132812 4.1875-25.800781-3.851562-8.667969-12.460937-14.238281-21.945312-14.199219h-18.328125c1.796875-6.929687 4.304687-13.65625 7.488281-20.070312l12-24.082031c2.835938-5.671876 2.054688-12.484376-1.996094-17.367188-4.050781-4.886719-10.601562-6.914062-16.703124-5.175781l-30.878907 8.800781c-2.40625.679688-4.996093.199219-7-1.296875l-20.800781-15.582031c-5.695312-4.246094-13.503906-4.246094-19.199219 0l-20.496093 15.367187c-2.101563 1.578125-4.84375 2.023438-7.335938 1.191407l-24.136719-8.046876c-5.851562-1.957031-12.304687-.371093-16.589843 4.070313-4.28125 4.441406-5.625 10.953125-3.457032 16.726563l10.984375 29.28125c1.386719 3.777343 2.554688 7.632812 3.496094 11.542968-5.996094 3.144532-10.648437 8.355469-13.097656 14.664063l-51.695313 24h-94.230468c-4.417969 0-8 3.582031-8 8v96c0 4.421875 3.582031 8 8 8zm312-130c4.417968 0 8 3.582031 8 8 0 4.421875-3.582032 8-8 8h-32c-4.417969 0-8-3.578125-8-8 0-4.417969 3.582031-8 8-8zm0 80h-32c-4.417969 0-8-3.578125-8-8 0-4.417969 3.582031-8 8-8h32c4.417968 0 8 3.582031 8 8 0 4.421875-3.582032 8-8 8zm8 24c0 4.421875-3.582032 8-8 8h-32c-4.417969 0-8-3.578125-8-8 0-4.417969 3.582031-8 8-8h32c4.417968 0 8 3.582031 8 8zm-8-56h-32c-4.417969 0-8-3.578125-8-8 0-4.417969 3.582031-8 8-8h32c4.417968 0 8 3.582031 8 8 0 4.421875-3.582032 8-8 8zm-128.335938-107.0625c7.472656 2.492187 15.691406 1.15625 21.992188-3.566407l20.503906-15.371093 20.839844 15.632812c6.007812 4.492188 13.765624 5.925781 20.984374 3.871094l30.871094-8.796875-12 24.085938c-4.367187 8.742187-7.644531 17.984374-9.761718 27.519531-8.875 1.023437-16.433594 6.933593-19.566407 15.300781-3.132812 8.371094-1.3125 17.789062 4.710938 24.386719-8.320313 9.046875-8.320313 22.957031 0 32-8.320313 9.046875-8.320313 22.957031 0 32-6.390625 7.007812-8.035157 17.132812-4.183594 25.804687 3.847656 8.667969 12.460937 14.238282 21.945313 14.195313h32c1.757812-.007813 3.507812-.210938 5.222656-.605469 26.164062 28.054688 43.664062 63.074219 50.398437 100.839844l6.824219 38.152344c4.46875 21.640624-1.089844 44.140624-15.117188 61.214843-13.234374 16.582031-33.257812 26.289063-54.472656 26.398438h-141.410156c-21.210938-.113281-41.238281-9.816407-54.46875-26.398438-14.085938-17.144531-19.644531-39.75-15.113281-61.472656l8.664062-48.464844c7.195313-40.417969 26.683594-77.628906 55.808594-106.566406 12.726563-12.65625 19.863281-29.882813 19.816406-47.832031 12.753907-2.871094 21.824219-14.191406 21.847657-27.265625v-32c-.050782-14.359375-10.976563-26.347657-25.273438-27.726563-1.113281-4.78125-2.523438-9.488281-4.214844-14.097656l-10.984375-29.277344zm-23.664062 95.0625v-32c0-6.625 5.371093-12 12-12 6.625 0 12 5.375 12 12v32c0 6.628906-5.375 12-12 12-6.628907 0-12-5.371094-12-12zm-104-2h40c1.164062 0 2.3125-.253907 3.367187-.742188l44.632813-20.71875v23.460938c.011718 7.703125 3.214843 15.058593 8.847656 20.3125l-5.128906 7.6875h-51.71875v16h56c2.671874.003906 5.171874-1.332031 6.65625-3.558594l2.636718-4c-1.90625 10.511719-7.011718 20.175781-14.613281 27.679687-7.96875 7.980469-15.304687 16.566407-21.945313 25.679688l-25.535156-11.199219c-1.011718-.421875-2.101562-.625-3.199218-.601562h-40zm-48 0h32v80h-32zm0 0"/><path d="m224.570312 340.964844 24.722657 12.34375c4.429687 2.214844 7.21875 6.753906 7.199219 11.707031.007812 4.902344-1.941407 9.609375-5.417969 13.070313-6.523438 6.457031-16.785157 7.1875-24.160157 1.71875l-13.621093-10.222657c-3.535157-2.652343-8.550781-1.933593-11.203125 1.601563-2.648438 3.53125-1.933594 8.546875 1.601562 11.199218l13.601563 10.214844c4.464843 3.347656 9.683593 5.542969 15.199219 6.402344v8.980469c0 4.421875 3.582031 8 8 8 4.417968 0 8-3.578125 8-8v-10.316407c14.347656-4.367187 24.113281-17.652343 24-32.648437.03125-11.027344-6.203126-21.117187-16.082032-26.015625l-24.71875-12.347656c-4.429687-2.214844-7.222656-6.75-7.199218-11.703125-.011719-4.902344 1.9375-9.609375 5.414062-13.070313 6.519531-6.472656 16.792969-7.207031 24.160156-1.722656l13.625 10.226562c3.535156 2.648438 8.546875 1.933594 11.199219-1.601562s1.933594-8.546875-1.597656-11.199219l-13.601563-10.214843c-4.472656-3.316407-9.695312-5.480469-15.199218-6.304688v-9.082031c0-4.417969-3.582032-8-8-8-4.417969 0-8 3.582031-8 8v10.289062c-14.339844 4.398438-24.09375 17.683594-24 32.679688-.035157 11.027343 6.199218 21.117187 16.078124 26.015625zm0 0"/></svg>