<svg xmlns="http://www.w3.org/2000/svg" height="648pt" version="1.1" viewBox="-5 0 648 648" width="648pt">
<g id="surface1">
<path d="M 0.222656 505.199219 C 0.222656 529.5 19.921875 549.101562 44.121094 549.101562 L 593.320312 549.101562 C 617.621094 549.101562 637.222656 529.398438 637.222656 505.199219 L 637.222656 483.199219 L 0.222656 483.199219 Z M 0.222656 505.199219 " style=" stroke:none;fill-rule:nonzero;fill:rgb(73.72549%,74.509804%,75.294118%);fill-opacity:1;" />
<path d="M 285.820312 549.199219 L 351.722656 549.199219 L 351.722656 637.101562 L 285.820312 637.101562 Z M 285.820312 549.199219 " style=" stroke:none;fill-rule:nonzero;fill:rgb(57.647059%,58.431373%,59.607843%);fill-opacity:1;" />
<path d="M 165.023438 164.699219 C 165.023438 146.5 150.222656 131.800781 132.121094 131.800781 L 132.121094 197.699219 C 150.222656 197.699219 165.023438 182.898438 165.023438 164.699219 Z M 165.023438 164.699219 " style=" stroke:none;fill-rule:nonzero;fill:rgb(100%,57.254902%,46.27451%);fill-opacity:1;" />
<path d="M 99.121094 98.800781 C 99.121094 117 113.921875 131.699219 132.023438 131.699219 L 132.023438 65.898438 C 113.820312 65.898438 99.121094 80.699219 99.121094 98.800781 Z M 99.121094 98.800781 " style=" stroke:none;fill-rule:nonzero;fill:rgb(100%,46.666667%,32.941176%);fill-opacity:1;" />
<path d="M 262.023438 109.800781 C 274.222656 181.5 226.023438 249.5 154.320312 261.699219 C 147.023438 263 139.523438 263.601562 132.121094 263.601562 C 64.722656 263.699219 8.121094 212.800781 1.023438 145.898438 C 0.523438 141.199219 0.222656 136.5 0.222656 131.800781 C -0.277344 134.300781 0.222656 151 0.222656 153.800781 L 0.222656 483.300781 L 318.722656 483.300781 L 318.722656 109.800781 Z M 44.222656 439.300781 Z M 44.222656 439.300781 " style=" stroke:none;fill-rule:nonzero;fill:rgb(100%,77.647059%,48.235294%);fill-opacity:1;" />
<path d="M 637.222656 153.800781 C 637.222656 129.5 617.523438 109.898438 593.320312 109.898438 L 593.320312 153.800781 C 593.320312 178.101562 573.621094 197.699219 549.421875 197.699219 L 483.523438 263.601562 L 483.523438 197.699219 L 373.621094 197.699219 C 349.320312 197.699219 329.722656 178 329.722656 153.800781 L 329.722656 109.800781 L 318.722656 109.800781 L 318.722656 483.199219 L 637.222656 483.199219 Z M 384.621094 318.5 Z M 340.722656 406.398438 Z M 340.722656 362.398438 Z M 428.621094 318.5 Z M 428.621094 318.5 " style=" stroke:none;fill-rule:nonzero;fill:rgb(100%,81.960784%,58.431373%);fill-opacity:1;" />
<path d="M 132.023438 263.601562 L 132.023438 197.699219 C 113.820312 197.699219 99.121094 182.898438 99.121094 164.800781 C 99.121094 183 113.921875 197.699219 132.023438 197.699219 L 132.023438 131.800781 C 113.820312 131.800781 99.121094 117 99.121094 98.898438 C 99.121094 80.800781 113.820312 65.898438 132.023438 65.898438 L 132.023438 0 C 59.222656 0 0.222656 59 0.222656 131.800781 C 0.222656 136.5 0.421875 141.199219 1.023438 145.898438 C 8.121094 212.800781 64.722656 263.699219 132.023438 263.601562 Z M 132.023438 263.601562 " style=" stroke:none;fill-rule:nonzero;fill:rgb(100%,46.666667%,32.941176%);fill-opacity:1;" />
<path d="M 132.023438 65.898438 C 150.222656 65.898438 164.921875 80.699219 164.921875 98.800781 C 165.023438 80.699219 150.222656 65.898438 132.023438 65.898438 L 132.023438 131.800781 C 150.222656 131.800781 164.921875 146.601562 164.921875 164.699219 C 164.921875 182.800781 150.121094 197.601562 132.023438 197.601562 L 132.023438 263.5 C 204.820312 263.5 263.820312 204.5 263.820312 131.699219 C 263.820312 58.898438 204.820312 0 132.023438 0 Z M 132.023438 65.898438 " style=" stroke:none;fill-rule:nonzero;fill:rgb(100%,57.254902%,46.27451%);fill-opacity:1;" />
<path d="M 417.621094 98.800781 L 593.320312 98.800781 L 593.320312 43.898438 C 593.320312 19.601562 573.621094 0 549.421875 0 L 373.621094 0 C 349.421875 0 329.722656 19.699219 329.722656 43.898438 L 329.722656 98.800781 Z M 417.621094 98.800781 " style=" stroke:none;fill-rule:nonzero;fill:rgb(100%,87.843137%,37.647059%);fill-opacity:1;" />
<path d="M 527.421875 98.800781 L 329.722656 98.800781 L 329.722656 153.699219 C 329.722656 178 349.421875 197.601562 373.621094 197.601562 L 483.421875 197.601562 L 483.421875 263.5 L 549.320312 197.601562 C 573.621094 197.601562 593.222656 177.898438 593.222656 153.699219 L 593.222656 98.800781 Z M 527.421875 98.800781 " style=" stroke:none;fill-rule:nonzero;fill:rgb(100%,84.705882%,22.352941%);fill-opacity:1;" />
<path d="M 516.421875 648 L 121.023438 648 C 114.921875 648 110.023438 643.101562 110.023438 637 C 110.023438 630.898438 114.921875 626 121.023438 626 L 516.421875 626 C 522.523438 626 527.421875 630.898438 527.421875 637 C 527.421875 643.101562 522.523438 648 516.421875 648 Z M 516.421875 648 " style=" stroke:none;fill-rule:nonzero;fill:rgb(57.647059%,58.431373%,59.607843%);fill-opacity:1;" />
<path d="M 132.023438 142.800781 C 107.722656 142.800781 88.121094 123.101562 88.121094 98.898438 C 88.121094 74.699219 107.820312 54.898438 132.023438 54.898438 C 156.222656 54.898438 175.921875 74.601562 175.921875 98.800781 C 175.921875 104.898438 171.023438 109.800781 164.921875 109.800781 C 158.820312 109.800781 153.921875 104.898438 153.921875 98.800781 C 153.921875 86.699219 144.121094 76.800781 131.921875 76.800781 C 119.722656 76.800781 109.921875 86.601562 109.921875 98.800781 C 109.921875 111 119.722656 120.800781 131.921875 120.800781 C 138.023438 120.800781 142.921875 125.699219 142.921875 131.800781 C 143.023438 137.898438 138.121094 142.800781 132.023438 142.800781 Z M 132.023438 142.800781 " style=" stroke:none;fill-rule:nonzero;fill:rgb(100%,31.372549%,13.72549%);fill-opacity:1;" />
<path d="M 132.023438 208.699219 C 107.722656 208.699219 88.121094 189 88.121094 164.800781 C 88.121094 158.699219 93.023438 153.800781 99.121094 153.800781 C 105.222656 153.800781 110.121094 158.699219 110.121094 164.800781 C 110.121094 176.898438 119.921875 186.800781 132.121094 186.800781 C 144.320312 186.800781 154.121094 177 154.121094 164.800781 C 154.121094 152.601562 144.320312 142.800781 132.121094 142.800781 C 126.023438 142.800781 121.121094 137.898438 121.121094 131.800781 C 121.121094 125.699219 126.023438 120.800781 132.121094 120.800781 C 156.421875 120.800781 176.023438 140.5 176.023438 164.699219 C 176.023438 188.898438 156.320312 208.699219 132.023438 208.699219 Z M 132.023438 208.699219 " style=" stroke:none;fill-rule:nonzero;fill:rgb(100%,31.372549%,13.72549%);fill-opacity:1;" />
<path d="M 121.023438 43.898438 L 143.023438 43.898438 L 143.023438 219.601562 L 121.023438 219.601562 Z M 121.023438 43.898438 " style=" stroke:none;fill-rule:nonzero;fill:rgb(100%,31.372549%,13.72549%);fill-opacity:1;" />
<path d="M 417.621094 109.800781 L 395.621094 109.800781 C 389.523438 109.800781 384.621094 104.898438 384.621094 98.800781 C 384.621094 92.699219 389.523438 87.800781 395.621094 87.800781 L 417.621094 87.800781 C 423.722656 87.800781 428.621094 92.699219 428.621094 98.800781 C 428.621094 104.898438 423.621094 109.800781 417.621094 109.800781 Z M 417.621094 109.800781 " style=" stroke:none;fill-rule:nonzero;fill:rgb(94.509804%,94.901961%,94.901961%);fill-opacity:1;" />
<path d="M 472.523438 109.800781 L 450.523438 109.800781 C 444.421875 109.800781 439.523438 104.898438 439.523438 98.800781 C 439.523438 92.699219 444.421875 87.800781 450.523438 87.800781 L 472.523438 87.800781 C 478.621094 87.800781 483.523438 92.699219 483.523438 98.800781 C 483.523438 104.898438 478.621094 109.800781 472.523438 109.800781 Z M 472.523438 109.800781 " style=" stroke:none;fill-rule:nonzero;fill:rgb(94.509804%,94.901961%,94.901961%);fill-opacity:1;" />
<path d="M 527.421875 109.800781 L 505.421875 109.800781 C 499.320312 109.800781 494.421875 104.898438 494.421875 98.800781 C 494.421875 92.699219 499.320312 87.800781 505.421875 87.800781 L 527.421875 87.800781 C 533.523438 87.800781 538.421875 92.699219 538.421875 98.800781 C 538.421875 104.898438 533.523438 109.800781 527.421875 109.800781 Z M 527.421875 109.800781 " style=" stroke:none;fill-rule:nonzero;fill:rgb(94.509804%,94.901961%,94.901961%);fill-opacity:1;" />
<path d="M 538.421875 373.398438 L 340.722656 373.398438 C 334.621094 373.398438 329.722656 368.5 329.722656 362.398438 C 329.722656 356.300781 334.621094 351.398438 340.722656 351.398438 L 538.421875 351.398438 C 544.523438 351.398438 549.421875 356.300781 549.421875 362.398438 C 549.421875 368.5 544.523438 373.398438 538.421875 373.398438 Z M 538.421875 373.398438 " style=" stroke:none;fill-rule:nonzero;fill:rgb(94.509804%,94.901961%,94.901961%);fill-opacity:1;" />
<path d="M 538.421875 417.398438 L 340.722656 417.398438 C 334.621094 417.398438 329.722656 412.5 329.722656 406.398438 C 329.722656 400.300781 334.621094 395.398438 340.722656 395.398438 L 538.421875 395.398438 C 544.523438 395.398438 549.421875 400.300781 549.421875 406.398438 C 549.421875 412.5 544.523438 417.398438 538.421875 417.398438 Z M 538.421875 417.398438 " style=" stroke:none;fill-rule:nonzero;fill:rgb(94.509804%,94.901961%,94.901961%);fill-opacity:1;" />
<path d="M 384.621094 329.5 L 340.722656 329.5 C 334.621094 329.5 329.722656 324.601562 329.722656 318.5 C 329.722656 312.398438 334.621094 307.5 340.722656 307.5 L 384.621094 307.5 C 390.722656 307.5 395.621094 312.398438 395.621094 318.5 C 395.621094 324.601562 390.722656 329.5 384.621094 329.5 Z M 384.621094 329.5 " style=" stroke:none;fill-rule:nonzero;fill:rgb(94.509804%,94.901961%,94.901961%);fill-opacity:1;" />
<path d="M 538.421875 329.5 L 428.621094 329.5 C 422.523438 329.5 417.621094 324.601562 417.621094 318.5 C 417.621094 312.398438 422.523438 307.5 428.621094 307.5 L 538.421875 307.5 C 544.523438 307.5 549.421875 312.398438 549.421875 318.5 C 549.421875 324.601562 544.523438 329.5 538.421875 329.5 Z M 538.421875 329.5 " style=" stroke:none;fill-rule:nonzero;fill:rgb(94.509804%,94.901961%,94.901961%);fill-opacity:1;" />
<path d="M 110.121094 450.300781 L 44.222656 450.300781 C 38.121094 450.300781 33.222656 445.398438 33.222656 439.300781 L 33.222656 373.398438 C 33.222656 367.300781 38.121094 362.398438 44.222656 362.398438 C 50.320312 362.398438 55.222656 367.300781 55.222656 373.398438 L 55.222656 428.300781 L 110.121094 428.300781 C 116.222656 428.300781 121.121094 433.199219 121.121094 439.300781 C 121.121094 445.398438 116.121094 450.300781 110.121094 450.300781 Z M 110.121094 450.300781 " style=" stroke:none;fill-rule:nonzero;fill:rgb(94.509804%,94.901961%,94.901961%);fill-opacity:1;" />
</g>
</svg>