<svg height="472pt" viewBox="0 -3 472 471" width="472pt" xmlns="http://www.w3.org/2000/svg"><path d="m387.648438 14.460938-11.648438 11.234374-11.648438-11.234374c-19.296874-18.613282-50.582031-18.613282-69.878906 0-19.296875 18.613281-19.296875 48.789062 0 67.402343l11.644532 11.234375 69.882812 67.402344 69.878906-67.402344 11.648438-11.234375c19.296875-18.613281 19.296875-48.789062 0-67.402343-19.296875-18.613282-50.582032-18.613282-69.878906 0zm0 0" fill="#d85b55"/><path d="m394.582031 328.5h-3.296875c-4.722656 0-9.316406 1.5625-13.058594 4.441406l-98.226562 75.558594h-68c15.464844 0 28-12.535156 28-28s-12.535156-28-28-28h-60l-24-24h-80l-24 24h-24v88h24l24 24h232l127.59375-97.570312c5.296875-4.050782 8.40625-10.34375 8.40625-17.011719 0-11.828125-9.589844-21.417969-21.417969-21.417969zm0 0" fill="#ffaf1c"/><g fill="#31cccc"><path d="m120 304.5h-16c0-101.96875 68.148438-193.429688 165.71875-222.414062l4.5625 15.34375c-90.835938 26.976562-154.28125 112.132812-154.28125 207.070312zm0 0"/><path d="m160 320.5h-16v-16c0-93.492188 66.710938-173.03125 158.617188-189.117188l2.765624 15.765626c-84.242187 14.742187-145.382812 87.648437-145.382812 173.351562zm0 0"/><path d="m200 328.5h-16v-24c0-83.8125 68.1875-152 152-152v16c-74.992188 0-136 61.007812-136 136zm0 0"/></g><path d="m120 408.5h96v8h-96zm0 0" fill="#e89b20"/></svg>