<svg height="512pt" viewBox="0 -42 512.002 512" width="512pt" xmlns="http://www.w3.org/2000/svg"><path d="m237.109375 369.582031c-3.5-3.5-3.5-9.171875 0-12.667969l17.320313-17.324218c.824218-.824219.957031-2.105469.335937-3.09375-3.328125-5.300782-6.238281-10.890625-8.726563-16.703125-10.4375 3.226562-21.519531 4.988281-33.019531 4.988281-61.726562 0-111.761719-50.039062-111.761719-111.761719 0-61.726562 50.035157-111.761719 111.761719-111.761719 42.667969 0 79.738281 23.921876 98.566407 59.078126 5.972656-2.4375 12.179687-4.425782 18.585937-5.890626 1.132813-.257812 1.945313-1.257812 1.945313-2.421874v-24.492188c0-4.945312 4.011718-8.957031 8.960937-8.957031h15.613281l22.789063-22.792969c4.847656-4.847656 4.847656-12.707031 0-17.554688l-31.671875-31.671874c-4.847656-4.847657-12.707032-4.847657-17.554688 0l-24.003906 24.003906c-1.140625 1.140625-2.917969 1.324218-4.285156.464844-15.605469-9.792969-32.9375-17.089844-51.4375-21.320313-1.574219-.359375-2.699219-1.742187-2.699219-3.359375v-33.929688c0-6.855468-5.558594-12.414062-12.414063-12.414062h-44.792968c-6.855469 0-12.410156 5.558594-12.410156 12.414062v33.933594c0 1.613282-1.125 2.996094-2.699219 3.355469-18.5 4.234375-35.832031 11.527344-51.4375 21.324219-1.367188.859375-3.144531.675781-4.285157-.46875l-24.003906-24.003906c-4.847656-4.847657-12.710937-4.847657-17.554687 0l-31.675781 31.671874c-4.847657 4.847657-4.847657 12.707032 0 17.554688l24.003906 24.003906c1.144531 1.144532 1.328125 2.917969.46875 4.285156-9.796875 15.605469-17.089844 32.9375-21.324219 51.4375-.359375 1.574219-1.742187 2.703126-3.355469 2.703126h-33.933594c-6.855468 0-12.414062 5.554687-12.414062 12.410156v44.792968c0 6.855469 5.558594 12.414063 12.414062 12.414063h33.933594c1.613282 0 2.996094 1.125 3.355469 2.699219 4.234375 18.5 11.527344 35.832031 21.320313 51.4375.859374 1.367187.675781 3.144531-.464844 4.285156l-24.003906 24.003906c-4.847657 4.847656-4.847657 12.707032 0 17.554688l34.105468 34.109375c3.503906 3.503906 9.183594 3.503906 12.6875 0l26.4375-26.4375c1.144532-1.144531 2.917969-1.328125 4.285156-.46875 15.605469 9.796875 32.9375 17.089843 51.4375 21.324219 1.574219.359374 2.699219 1.742187 2.699219 3.355468v33.933594c0 6.855469 5.558594 12.414062 12.414063 12.414062h44.792968c6.855469 0 12.414063-5.558593 12.414063-12.414062v-33.320312zm0 0" fill="#feca57"/><path d="m70.558594 119.789062c1.144531 1.140626 1.324218 2.914063.46875 4.285157-9.796875 15.601562-17.089844 32.933593-21.324219 51.4375-.359375 1.574219-1.742187 2.699219-3.355469 2.699219h30.84375c1.617188 0 3-1.125 3.359375-2.699219 4.230469-18.5 11.523438-35.832031 21.320313-51.4375.859375-1.371094.675781-3.144531-.464844-4.285157l-24.003906-24.003906c-4.847656-4.847656-4.847656-12.707031 0-17.554687l25.027344-25.03125-6.644532-6.644531c-4.847656-4.847657-12.710937-4.847657-17.558594 0l-31.671874 31.675781c-4.847657 4.847656-4.847657 12.707031 0 17.554687zm0 0" fill="#f4b537"/><path d="m30.84375 235.414062v-44.792968c0-6.851563 5.558594-12.410156 12.414062-12.410156h-30.84375c-6.855468 0-12.414062 5.554687-12.414062 12.410156v44.792968c0 6.855469 5.558594 12.414063 12.414062 12.414063h30.84375c-6.855468 0-12.414062-5.558594-12.414062-12.414063zm0 0" fill="#f4b537"/><path d="m77.402344 347.808594c-4.847656-4.847656-4.847656-12.707032 0-17.554688l24.003906-24.003906c1.140625-1.140625 1.324219-2.917969.464844-4.285156-9.796875-15.605469-17.089844-32.9375-21.320313-51.4375-.359375-1.574219-1.746093-2.699219-3.359375-2.699219h-30.84375c1.613282 0 2.996094 1.125 3.355469 2.699219 4.234375 18.5 11.527344 35.832031 21.320313 51.4375.859374 1.367187.675781 3.144531-.464844 4.285156l-24.003906 24.003906c-4.847657 4.847656-4.847657 12.707032 0 17.554688l34.105468 34.109375c3.503906 3.503906 9.183594 3.503906 12.6875 0l9.082032-9.078125zm0 0" fill="#f4b537"/><path d="m209.054688 34.785156v-22.371094c0-6.855468 5.558593-12.414062 12.414062-12.414062h-30.847656c-6.855469 0-12.410156 5.558594-12.410156 12.414062v33.933594c0 1.613282-1.125 2.996094-2.699219 3.355469l22.039062-2.207031c6.53125-.652344 11.503907-6.148438 11.503907-12.710938zm0 0" fill="#f4b537"/><path d="m209.054688 413.625v-22.371094c0-6.5625-4.972657-12.058594-11.503907-12.714844l-22.039062-2.203124c1.574219.359374 2.699219 1.742187 2.699219 3.355468v33.933594c0 6.855469 5.558593 12.414062 12.410156 12.414062h30.847656c-6.855469 0-12.414062-5.558593-12.414062-12.414062zm0 0" fill="#f4b537"/><path d="m502.011719 246.15625h-24.488281c-.679688 0-1.265626-.472656-1.421876-1.148438-3.035156-13.277343-8.257812-25.871093-15.515624-37.4375-.371094-.589843-.292969-1.335937.191406-1.820312l17.320312-17.320312c1.886719-1.886719 2.925782-4.394532 2.925782-7.0625 0-2.667969-1.039063-5.175782-2.925782-7.0625l-22.855468-22.859376c-3.894532-3.894531-10.230469-3.894531-14.125 0l-17.320313 17.324219c-.484375.480469-1.230469.558594-1.820313.191407-11.566406-7.257813-24.160156-12.480469-37.4375-15.515626-.675781-.15625-1.148437-.742187-1.148437-1.421874v-24.488282c0-5.507812-4.480469-9.988281-9.988281-9.988281h-32.324219c-5.507813 0-9.988281 4.480469-9.988281 9.988281v24.488282c0 .679687-.472656 1.265624-1.148438 1.421874-13.277344 3.035157-25.875 8.257813-37.4375 15.515626-.589844.367187-1.339844.292968-1.820312-.191407l-17.324219-17.324219c-3.890625-3.894531-10.226563-3.894531-14.121094 0l-22.859375 22.859376c-3.894531 3.894531-3.894531 10.230468 0 14.121093l17.324219 17.324219c.484375.484375.5625 1.230469.191406 1.820312-7.257812 11.5625-12.480469 24.160157-15.515625 37.4375-.15625.675782-.742187 1.148438-1.421875 1.148438h-24.488281c-5.507812 0-9.988281 4.480469-9.988281 9.988281v32.324219c0 5.507812 4.480469 9.984375 9.988281 9.984375h24.488281c.679688 0 1.265625.472656 1.421875 1.152344 3.035156 13.277343 8.257813 25.871093 15.515625 37.4375.371094.585937.289063 1.335937-.191406 1.816406l-17.324219 17.324219c-3.890625 3.894531-3.890625 10.230468 0 14.125l24.613282 24.613281c2.925781 2.925781 7.6875 2.925781 10.613281 0l19.078125-19.082031c.480468-.480469 1.230468-.558594 1.820312-.191406 11.5625 7.261718 24.160156 12.480468 37.4375 15.515624.675782.15625 1.148438.742188 1.148438 1.425782v24.484375c0 5.507812 4.480468 9.988281 9.988281 9.988281h32.324219c5.507812 0 9.988281-4.480469 9.988281-9.988281v-24.484375c0-.683594.472656-1.269532 1.148437-1.425782 13.277344-3.035156 25.871094-8.253906 37.4375-15.515624.589844-.367188 1.335938-.289063 1.820313.191406l19.078125 19.082031c1.417969 1.417969 3.300781 2.195313 5.304688 2.195313 2.003906 0 3.890624-.777344 5.304687-2.195313l24.617187-24.613281c3.890626-3.894532 3.890626-10.230469 0-14.125l-17.324218-17.324219c-.480469-.480469-.558594-1.230469-.191406-1.816406 7.261718-11.566407 12.480468-24.160157 15.519531-37.4375.152343-.675781.738281-1.152344 1.421875-1.152344h24.488281c5.503906 0 9.988281-4.476563 9.988281-9.984375v-32.324219c-.003906-5.507812-4.484375-9.988281-9.992187-9.988281zm0 0" fill="#54a0ff"/><path d="m267.226562 370.308594c-3.894531-3.894532-3.894531-10.230469 0-14.121094l17.324219-17.324219c.480469-.484375.558594-1.230469.191407-1.820312-7.261719-11.5625-12.484376-24.160157-15.519532-37.4375-.15625-.675781-.738281-1.148438-1.421875-1.148438h-24.488281c-5.503906 0-9.988281-4.480469-9.988281-9.984375v-32.328125c0-5.503906 4.480469-9.988281 9.988281-9.988281h24.488281c.683594 0 1.269531-.46875 1.421875-1.148438 3.039063-13.277343 8.257813-25.871093 15.519532-37.4375.367187-.585937.289062-1.335937-.191407-1.816406l-17.324219-17.324218c-3.894531-3.894532-3.894531-10.230469 0-14.125l14.496094-14.496094-8.359375-8.359375c-3.894531-3.894531-10.230469-3.894531-14.125 0l-22.855469 22.855469c-3.894531 3.894531-3.894531 10.230468 0 14.125l17.320313 17.324218c.484375.480469.5625 1.230469.191406 1.816406-7.257812 11.566407-12.480469 24.160157-15.515625 37.4375-.15625.679688-.738281 1.148438-1.421875 1.148438h-24.488281c-5.507812 0-9.988281 4.480469-9.988281 9.988281v32.328125c0 5.503906 4.480469 9.984375 9.988281 9.984375h24.488281c.683594 0 1.265625.472657 1.421875 1.148438 3.035156 13.277343 8.257813 25.875 15.515625 37.4375.371094.589843.292969 1.335937-.191406 1.820312l-17.320313 17.324219c-3.894531 3.894531-3.894531 10.230469 0 14.121094l24.613282 24.613281c2.925781 2.929687 7.683594 2.925781 10.609375 0l10.117187-10.117187zm0 0" fill="#338def"/><path d="m361.9375 143.671875v-16.136719c0-5.507812 4.476562-9.988281 9.984375-9.988281h-30.84375c-5.515625 0-9.988281 4.472656-9.988281 9.988281v24.488282c0 .679687-.472656 1.265624-1.148438 1.421874l23.652344-1.050781c4.667969-.207031 8.34375-4.050781 8.34375-8.722656zm0 0" fill="#338def"/><path d="m361.9375 417.078125v-16.136719c0-4.671875-3.675781-8.515625-8.34375-8.722656l-23.652344-1.050781c.675782.15625 1.148438.738281 1.148438 1.421875v24.488281c0 5.515625 4.472656 9.988281 9.988281 9.988281h30.84375c-5.503906 0-9.984375-4.480468-9.984375-9.988281zm0 0" fill="#338def"/><path d="m437.898438 272.308594c0 44.476562-36.058594 80.535156-80.539063 80.535156-44.476563 0-80.535156-36.058594-80.535156-80.535156 0-44.480469 36.058593-80.539063 80.535156-80.539063 44.480469 0 80.539063 36.058594 80.539063 80.539063zm0 0" fill="#e4eaf8"/><path d="m315.816406 272.308594c0-37.753906 25.984375-69.429688 61.042969-78.148438-6.246094-1.554687-12.773437-2.390625-19.5-2.390625-44.476563 0-80.535156 36.058594-80.535156 80.539063 0 44.476562 36.058593 80.535156 80.535156 80.535156 6.726563 0 13.253906-.835938 19.5-2.390625-35.058594-8.71875-61.042969-40.390625-61.042969-78.144531zm0 0" fill="#d8dce5"/><path d="m357.359375 275.175781c-4.257813 0-7.710937-3.453125-7.710937-7.710937v-41.117188c0-4.257812 3.453124-7.710937 7.710937-7.710937 4.261719 0 7.710937 3.453125 7.710937 7.710937v41.117188c0 4.257812-3.449218 7.710937-7.710937 7.710937zm0 0" fill="#576574"/><path d="m394.957031 280.019531h-31.703125c-4.261718 0-7.710937-3.453125-7.710937-7.710937 0-4.261719 3.453125-7.710938 7.710937-7.710938h31.703125c4.261719 0 7.710938 3.449219 7.710938 7.710938 0 4.257812-3.453125 7.710937-7.710938 7.710937zm0 0" fill="#576574"/><g fill="#3e4b5a"><path d="m357.359375 190.226562c-4.257813 0-7.710937 3.453126-7.710937 7.710938v6.960938c0 4.257812 3.453124 7.710937 7.710937 7.710937 4.261719 0 7.710937-3.453125 7.710937-7.710937v-6.960938c0-4.257812-3.449218-7.710938-7.710937-7.710938zm0 0"/><path d="m357.359375 332.003906c-4.257813 0-7.710937 3.453125-7.710937 7.710938v6.960937c0 4.257813 3.453124 7.710938 7.710937 7.710938 4.261719 0 7.710937-3.453125 7.710937-7.710938v-6.960937c0-4.257813-3.449218-7.710938-7.710937-7.710938zm0 0"/><path d="m316.320312 201.222656c-3.6875 2.128906-4.953124 6.847656-2.824218 10.535156l3.480468 6.027344c2.128907 3.6875 6.847657 4.949219 10.535157 2.820313 3.6875-2.128907 4.953125-6.84375 2.824219-10.53125l-3.480469-6.027344c-2.128907-3.6875-6.84375-4.953125-10.535157-2.824219zm0 0"/><path d="m387.210938 324.007812c-3.6875 2.128907-4.953126 6.84375-2.824219 10.53125l3.480469 6.027344c2.128906 3.691406 6.84375 4.953125 10.53125 2.824219 3.691406-2.128906 4.953124-6.84375 2.824218-10.535156l-3.480468-6.027344c-2.128907-3.6875-6.84375-4.949219-10.53125-2.820313zm0 0"/><path d="m286.277344 231.265625c-2.128906 3.6875-.867188 8.40625 2.824218 10.535156l6.027344 3.480469c3.6875 2.128906 8.402344.863281 10.53125-2.824219s.867188-8.402343-2.820312-10.535156l-6.027344-3.476563c-3.6875-2.128906-8.40625-.867187-10.535156 2.820313zm0 0"/><path d="m409.0625 302.15625c-2.128906 3.6875-.867188 8.402344 2.820312 10.535156l6.027344 3.476563c3.6875 2.132812 8.402344.867187 10.535156-2.820313 2.128907-3.691406.863282-8.40625-2.824218-10.535156l-6.027344-3.480469c-3.6875-2.128906-8.402344-.863281-10.53125 2.824219zm0 0"/><path d="m275.28125 272.308594c0 4.257812 3.453125 7.710937 7.710938 7.710937h6.957031c4.261719 0 7.710937-3.453125 7.710937-7.710937 0-4.261719-3.449218-7.710938-7.710937-7.710938h-6.957031c-4.257813-.003906-7.710938 3.449219-7.710938 7.710938zm0 0"/><path d="m417.058594 272.308594c0 4.257812 3.453125 7.710937 7.710937 7.710937h6.957031c4.261719 0 7.710938-3.453125 7.710938-7.710937 0-4.261719-3.449219-7.710938-7.710938-7.710938h-6.957031c-4.257812-.003906-7.710937 3.449219-7.710937 7.710938zm0 0"/><path d="m286.277344 313.347656c2.128906 3.6875 6.84375 4.949219 10.535156 2.820313l6.027344-3.476563c3.6875-2.132812 4.949218-6.847656 2.820312-10.535156s-6.84375-4.953125-10.53125-2.820312l-6.027344 3.476562c-3.691406 2.128906-4.953124 6.84375-2.824218 10.535156zm0 0"/><path d="m409.0625 242.457031c2.128906 3.6875 6.84375 4.953125 10.53125 2.824219l6.027344-3.480469c3.6875-2.128906 4.953125-6.84375 2.824218-10.53125-2.128906-3.691406-6.847656-4.953125-10.535156-2.824219l-6.027344 3.480469c-3.6875 2.128907-4.953124 6.84375-2.820312 10.53125zm0 0"/><path d="m316.320312 343.390625c3.6875 2.128906 8.40625.863281 10.535157-2.824219l3.480469-6.027344c2.128906-3.6875.863281-8.402343-2.824219-10.53125-3.6875-2.128906-8.40625-.867187-10.535157 2.820313l-3.480468 6.027344c-2.128906 3.6875-.863282 8.40625 2.824218 10.535156zm0 0"/><path d="m387.210938 220.605469c3.6875 2.128906 8.402343.867187 10.53125-2.820313l3.480468-6.027344c2.128906-3.6875.867188-8.40625-2.824218-10.535156-3.6875-2.128906-8.402344-.863281-10.53125 2.824219l-3.480469 6.027344c-2.128907 3.6875-.863281 8.402343 2.824219 10.53125zm0 0"/></g><path d="m371.496094 272.308594c0 7.804687-6.328125 14.132812-14.136719 14.132812-7.804687 0-14.132813-6.328125-14.132813-14.132812 0-7.808594 6.328126-14.136719 14.132813-14.136719 7.808594 0 14.136719 6.328125 14.136719 14.136719zm0 0" fill="#ff6b6b"/><path d="m362.722656 272.308594c0-4.023438 1.6875-7.648438 4.386719-10.222656-2.539063-2.421876-5.964844-3.914063-9.75-3.914063-7.804687 0-14.132813 6.328125-14.132813 14.132813 0 7.808593 6.328126 14.136718 14.132813 14.136718 3.785156 0 7.210937-1.496094 9.75-3.917968-2.699219-2.570313-4.386719-6.195313-4.386719-10.214844zm0 0" fill="#ee5253"/><path d="m357.359375 360.554688c-48.660156 0-88.246094-39.585938-88.246094-88.246094s39.585938-88.25 88.246094-88.25 88.25 39.589844 88.25 88.25-39.589844 88.246094-88.25 88.246094zm0-161.074219c-40.15625 0-72.824219 32.671875-72.824219 72.828125s32.667969 72.824218 72.824219 72.824218 72.828125-32.667968 72.828125-72.824218c0-40.160156-32.671875-72.828125-72.828125-72.828125zm0 0" fill="#576574"/></svg>