<svg height="512pt" viewBox="-64 0 511 512" width="512pt" xmlns="http://www.w3.org/2000/svg"><path d="m256.699219 0c-3.03125 0-194.496094 0-232.402344 0-13.089844 0-23.796875 10.707031-23.796875 23.796875v464.40625c0 13.085937 10.703125 23.796875 23.796875 23.796875h232.402344c13.085937 0 23.796875-10.707031 23.796875-23.796875 0-11.894531 0-460.699219 0-464.40625 0-13.089844-10.707032-23.796875-23.796875-23.796875zm0 0" fill="#576574"/><path d="m31.792969 488.203125c0-11.214844 0-459.851563 0-464.40625 0-13.089844 10.710937-23.796875 23.796875-23.796875-13.792969 0-24.796875 0-31.292969 0-13.089844 0-23.796875 10.707031-23.796875 23.796875v464.40625c0 13.085937 10.703125 23.796875 23.796875 23.796875h31.292969c-13.089844 0-23.796875-10.710938-23.796875-23.796875zm0 0" fill="#3e4b5a"/><path d="m157.824219 466.777344c0 9.570312-7.757813 17.328125-17.328125 17.328125-9.566406 0-17.324219-7.757813-17.324219-17.328125 0-9.566406 7.757813-17.324219 17.324219-17.324219 9.570312 0 17.328125 7.757813 17.328125 17.324219zm0 0" fill="#3e4b5a"/><path d="m147.125 466.777344c0-4.917969 2.058594-9.34375 5.351562-12.5-3.113281-2.980469-7.328124-4.824219-11.980468-4.824219-9.566406 0-17.324219 7.757813-17.324219 17.324219 0 9.570312 7.757813 17.328125 17.324219 17.328125 4.652344 0 8.867187-1.84375 11.980468-4.824219-3.292968-3.15625-5.351562-7.585938-5.351562-12.503906zm0 0" fill="#36434f"/><path d="m244.378906 62.714844h-207.761718c-2.722657 0-4.933594 2.207031-4.933594 4.933594v348.484374c0 4.484376 3.636718 8.121094 8.121094 8.121094h201.386718c4.484375 0 8.121094-3.636718 8.121094-8.121094v-348.484374c0-2.726563-2.210938-4.933594-4.933594-4.933594zm0 0" fill="#a4d2fc"/><path d="m62.21875 416.132812v-348.484374c0-2.726563 2.210938-4.933594 4.933594-4.933594h-30.535156c-2.722657 0-4.933594 2.207031-4.933594 4.933594v348.484374c0 4.484376 3.636718 8.121094 8.121094 8.121094h30.535156c-4.484375-.003906-8.121094-3.636718-8.121094-8.121094zm0 0" fill="#6fb1ff"/><path d="m200.457031 354.304688c5.503907 21.613281 25.09375 37.597656 48.421875 37.597656s42.921875-15.984375 48.425782-37.597656zm0 0" fill="#feca57"/><path d="m231.363281 354.304688h-30.90625c5.503907 21.613281 25.09375 37.597656 48.421875 37.597656 5.394532 0 10.585938-.863282 15.457032-2.445313-16.179688-5.257812-28.742188-18.539062-32.972657-35.152343zm0 0" fill="#f4b537"/><path d="m242.078125 159.742188h13.605469c2.453125 0 4.878906.125 7.269531.359374v-19.160156c0-7.773437-6.300781-14.074218-14.074219-14.074218-7.773437 0-14.074218 6.304687-14.074218 14.074218v19.160156c2.394531-.234374 4.820312-.359374 7.273437-.359374zm0 0" fill="#3e4b5a"/><path d="m254.894531 140.941406c0-3.835937 1.539063-7.308594 4.03125-9.847656-2.554687-2.605469-6.109375-4.226562-10.046875-4.226562-7.773437 0-14.074218 6.304687-14.074218 14.074218v19.160156c2.394531-.234374 4.816406-.359374 7.273437-.359374h12.816406zm0 0" fill="#36434f"/><path d="m330.515625 264.664062v-33.285156c0-41.160156-33.675781-74.835937-74.832031-74.835937h-13.605469c-41.160156 0-74.835937 33.675781-74.835937 74.835937v33.285156c0 22.683594-8.351563 44.574219-23.46875 61.488282h210.214843c-15.117187-16.914063-23.472656-38.804688-23.472656-61.488282zm0 0" fill="#feca57"/><path d="m198.148438 231.378906c0-38.234375 29.0625-69.992187 66.183593-74.316406-2.839843-.332031-5.722656-.519531-8.648437-.519531h-13.609375c-41.15625 0-74.832031 33.675781-74.832031 74.835937v33.285156c0 22.683594-8.355469 44.570313-23.46875 61.488282h30.90625c15.113281-16.917969 23.46875-38.804688 23.46875-61.488282zm0 0" fill="#f4b537"/><path d="m357.144531 325.085938h-216.527343c-3.433594 0-6.21875 2.785156-6.21875 6.21875v17.847656c0 3.433594 2.785156 6.21875 6.21875 6.21875h216.527343c3.429688 0 6.214844-2.78125 6.214844-6.21875v-17.847656c0-3.4375-2.78125-6.21875-6.214844-6.21875zm0 0" fill="#f4b537"/><path d="m357.144531 336.824219h-216.527343c-3.316407 0-6.019532-2.597657-6.199219-5.871094-.007813.117187-.019531.230469-.019531.347656v17.851563c0 3.433594 2.785156 6.21875 6.21875 6.21875h216.527343c3.429688 0 6.214844-2.785156 6.214844-6.21875v-17.851563c0-.117187-.011719-.230469-.015625-.347656-.183594 3.273437-2.882812 5.871094-6.199219 5.871094zm0 0" fill="#e59d1f"/><path d="m244.378906 62.714844c-6.695312 0-201.144531 0-207.761718 0-2.722657 0-4.933594 2.207031-4.933594 4.933594v30.332031h217.628906c0-17.476563 0-28.6875 0-30.332031 0-2.722657-2.210938-4.933594-4.933594-4.933594zm0 0" fill="#54a0ff"/><path d="m67.152344 62.714844h-30.535156c-2.722657 0-4.933594 2.207031-4.933594 4.933594v30.332031h30.535156v-30.332031c0-2.726563 2.210938-4.933594 4.933594-4.933594zm0 0" fill="#338def"/><path d="m163.308594 39.3125h-45.617188c-4.269531 0-7.726562-3.460938-7.726562-7.726562 0-4.269532 3.457031-7.726563 7.726562-7.726563h45.617188c4.265625 0 7.726562 3.457031 7.726562 7.726563 0 4.265624-3.460937 7.726562-7.726562 7.726562zm0 0" fill="#3e4b5a"/><g fill="#e4eaf8"><path d="m347.371094 183.210938c-4.265625 0-7.726563-3.460938-7.726563-7.726563 0-10.53125-8.566406-19.097656-19.09375-19.097656-4.265625 0-7.726562-3.457031-7.726562-7.726563 0-4.265625 3.457031-7.726562 7.726562-7.726562 19.050781 0 34.550781 15.5 34.550781 34.550781-.003906 4.265625-3.460937 7.726563-7.730468 7.726563zm0 0"/><path d="m375.941406 183.210938c-4.265625 0-7.726562-3.460938-7.726562-7.726563 0-26.285156-21.382813-47.667969-47.664063-47.667969-4.269531 0-7.726562-3.457031-7.726562-7.726562 0-4.269532 3.457031-7.726563 7.726562-7.726563 34.804688 0 63.121094 28.316407 63.121094 63.121094 0 4.265625-3.460937 7.726563-7.730469 7.726563zm0 0"/></g></svg>