<svg height="464pt" viewBox="0 -16 464 464" width="464pt" xmlns="http://www.w3.org/2000/svg"><path d="m448 367.039062h-160v64h176v-64zm0 0" fill="#00aeef"/><path d="m299.28125 0-11.359375 11.28125c-12.480469 12.511719-12.480469 32.765625 0 45.277344l88.078125 86.480468h-8c-17.671875 0-32 14.328126-32 32v58.800782c-19.1875 6.734375-32.023438 24.863281-32 45.199218v40c0 26.511719 21.492188 48 48 48h88l.160156-226.160156zm0 0" fill="#ffdaaa"/><path d="m112 367.039062h-112v64h176v-64zm0 0" fill="#00aeef"/><path d="m176.078125 11.28125-11.359375-11.28125-140.878906 140.878906.160156 226.160156h88c26.507812 0 48-21.488281 48-48v-40c.023438-20.335937-12.8125-38.464843-32-45.199218v-58.800782c0-17.671874-14.328125-32-32-32h-8l88.078125-86.480468c12.480469-12.511719 12.480469-32.765625 0-45.277344zm0 0" fill="#ffdaaa"/><path d="m231.761719 255.039062c-13.785157-7.78125-27.042969-16.46875-39.683594-26-40.796875-30.480468-92.398437-82.71875-45.277344-127.359374 20.386719-19.402344 52.410157-19.402344 72.800781 0l12.160157 11.839843 12.078125-11.839843c12.726562-12.253907 30.769531-17.277344 48-13.359376 9.375 2.054688 17.988281 6.679688 24.878906 13.359376 73.121094 69.199218-84.957031 153.359374-84.957031 153.359374zm0 0" fill="#d43237"/><path d="m312 399.039062h16v16h-16zm0 0" fill="#ffb655"/><path d="m136 399.039062h16v16h-16zm0 0" fill="#ffb655"/><path d="m152 143.039062h16c0-8.835937 7.164062-16 16-16v-16c-17.671875 0-32 14.328126-32 32zm0 0" fill="#e6e7e8"/><path d="m80 143.039062h8v128h-8zm0 0" fill="#ffc477"/><path d="m376 143.039062h8v128h-8zm0 0" fill="#ffc477"/><path d="m231.761719 255.039062c-13.785157-7.78125-27.042969-16.46875-39.683594-26 40.425781-41.386718 74.089844-88.875 99.761719-140.71875 9.375 2.054688 17.988281 6.679688 24.878906 13.359376 73.121094 69.199218-84.957031 153.359374-84.957031 153.359374zm0 0" fill="#cd2a00"/></svg>